<?xml version="1.0" standalone="no"?>
<!DOCTYPE svg PUBLIC "-//W3C//DTD SVG 20010904//EN"
 "http://www.w3.org/TR/2001/REC-SVG-20010904/DTD/svg10.dtd">
<svg version="1.0" xmlns="http://www.w3.org/2000/svg"
 width="29.000000pt" height="17.000000pt" viewBox="0 0 296.000000 171.000000"
 preserveAspectRatio="xMidYMid meet">
<metadata>
</metadata>
<g transform="translate(0.000000,171.000000) scale(0.100000,-0.100000)"
fill="#000000" stroke="none">
<path d="M1355 1699 c-272 -38 -524 -228 -639 -481 -59 -130 -70 -187 -71
-348 0 -172 20 -255 91 -388 152 -287 423 -452 744 -452 382 0 706 246 812
617 30 105 32 334 4 433 -122 422 -513 679 -941 619z m250 -284 c112 -29 217
-112 268 -210 12 -25 22 -67 25 -110 8 -121 -38 -196 -179 -288 -60 -39 -86
-73 -103 -130 -5 -16 -18 -17 -138 -15 l-133 3 -3 53 c-6 96 56 180 179 246
73 39 88 53 95 91 12 64 -45 115 -129 115 -62 0 -90 -15 -155 -84 -30 -31 -57
-56 -62 -56 -14 0 -171 122 -177 137 -8 20 12 53 67 115 112 125 281 175 445
133z m4 -839 c8 -9 11 -55 9 -137 l-3 -124 -135 0 -135 0 -3 124 c-2 82 1 128
9 137 16 20 242 20 258 0z"/>
</g>
</svg>
